<?xml version="1.0" encoding="utf-8"?>
<!-- Generator: Adobe Illustrator 25.4.1, SVG Export Plug-In . SVG Version: 6.00 Build 0)  -->
<svg version="1.1" id="Layer_1" xmlns="http://www.w3.org/2000/svg" xmlns:xlink="http://www.w3.org/1999/xlink" x="0px" y="0px"
	 viewBox="0 0 1068.2 618.6" style="enable-background:new 0 0 1068.2 618.6;" xml:space="preserve">
<style type="text/css">
	.st0{fill:none;stroke:#52C6F7;stroke-width:6;stroke-linecap:round;stroke-dasharray:1,20;}
	.st1{enable-background:new    ;}
	.st2{fill:#0089DD;}
	.st3{fill:#26E077;}
	.st4{fill:#F8F8F8;}
	.st5{fill:#52C6F7;}
</style>
<g id="Group_523" transform="translate(-438.648 -844.565)">
	<line id="Line_23" class="st0" x1="589.9" y1="935.5" x2="1502.9" y2="935.5"/>
	<line id="Line_25" class="st0" x1="525.4" y1="1300.8" x2="1324.9" y2="1300.8"/>
	<line id="Line_26" class="st0" x1="1493.9" y1="950.5" x2="1491.9" y2="1143.5"/>
	<line id="Line_24" class="st0" x1="524.9" y1="1154.5" x2="1503.9" y2="1154.9"/>
	<g id="Group_444" transform="translate(438.648 844.565)">
		<g class="st1">
			<path class="st2" d="M42.3,229.1c0-1,0.2-2.1,0.6-3.1c0.4-1,0.9-1.9,1.6-2.7c0.7-0.8,1.6-1.4,2.6-1.9s2.2-0.7,3.6-0.7
				c1.6,0,2.9,0.3,4.1,1c1.1,0.7,2,1.6,2.6,2.7l-2.5,1.8c-0.2-0.5-0.5-0.9-0.8-1.2c-0.3-0.3-0.7-0.6-1-0.8c-0.4-0.2-0.8-0.3-1.2-0.4
				c-0.4-0.1-0.8-0.1-1.2-0.1c-0.8,0-1.6,0.2-2.2,0.5c-0.6,0.3-1.1,0.8-1.5,1.3c-0.4,0.5-0.7,1.1-0.9,1.8c-0.2,0.7-0.3,1.4-0.3,2
				c0,0.8,0.1,1.5,0.4,2.2c0.2,0.7,0.6,1.3,1,1.8s1,1,1.6,1.3c0.6,0.3,1.3,0.5,2,0.5c0.4,0,0.8,0,1.2-0.1c0.4-0.1,0.8-0.2,1.2-0.5
				s0.7-0.5,1-0.8c0.3-0.3,0.6-0.7,0.8-1.2l2.7,1.6c-0.3,0.6-0.7,1.2-1.2,1.7c-0.5,0.5-1.1,0.9-1.7,1.2c-0.6,0.3-1.3,0.6-2,0.8
				c-0.7,0.2-1.4,0.3-2.1,0.3c-1.2,0-2.3-0.3-3.3-0.8c-1-0.5-1.9-1.2-2.6-2c-0.7-0.8-1.3-1.8-1.7-2.8
				C42.5,231.2,42.3,230.1,42.3,229.1z"/>
			<path class="st2" d="M62.9,237.9c-0.6,0-1.2-0.1-1.7-0.3c-0.5-0.2-1-0.5-1.4-0.8c-0.4-0.4-0.7-0.8-0.9-1.3
				c-0.2-0.5-0.3-1-0.3-1.6c0-0.6,0.1-1.1,0.4-1.6c0.3-0.5,0.6-0.9,1.1-1.3c0.5-0.4,1-0.6,1.7-0.8c0.7-0.2,1.4-0.3,2.2-0.3
				c0.6,0,1.1,0,1.6,0.1c0.5,0.1,1,0.2,1.4,0.4v-0.7c0-0.8-0.2-1.5-0.7-1.9c-0.5-0.4-1.2-0.7-2.1-0.7c-0.7,0-1.3,0.1-2,0.4
				c-0.6,0.2-1.3,0.6-2,1.1l-1-2c1.6-1.1,3.4-1.6,5.2-1.6c1.8,0,3.2,0.4,4.2,1.3c1,0.9,1.5,2.2,1.5,3.9v3.9c0,0.3,0.1,0.6,0.2,0.7
				c0.1,0.1,0.3,0.2,0.6,0.2v2.7c-0.5,0.1-1,0.2-1.4,0.2c-0.6,0-1.1-0.1-1.4-0.4c-0.3-0.3-0.5-0.6-0.6-1.1l-0.1-0.7
				c-0.6,0.7-1.2,1.3-2,1.7C64.6,237.7,63.8,237.9,62.9,237.9z M63.8,235.6c0.5,0,1.1-0.1,1.5-0.3c0.5-0.2,0.9-0.4,1.1-0.8
				c0.4-0.3,0.5-0.6,0.5-0.9v-1.4c-0.4-0.1-0.8-0.3-1.2-0.3c-0.4-0.1-0.9-0.1-1.3-0.1c-0.8,0-1.5,0.2-2,0.6s-0.8,0.9-0.8,1.4
				c0,0.5,0.2,1,0.6,1.4C62.7,235.4,63.2,235.6,63.8,235.6z"/>
			<path class="st2" d="M80.7,237c-0.4,0.2-1,0.4-1.6,0.6c-0.6,0.2-1.3,0.3-2,0.3c-0.4,0-0.9-0.1-1.3-0.2c-0.4-0.1-0.7-0.3-1-0.5
				s-0.5-0.6-0.7-1c-0.2-0.4-0.3-0.9-0.3-1.4v-7.2h-1.7v-2.5h1.7V221h3.2v4.1h2.6v2.5h-2.6v6.1c0,0.4,0.1,0.8,0.3,0.9
				s0.5,0.3,0.9,0.3s0.7-0.1,1-0.2c0.3-0.1,0.6-0.2,0.8-0.3L80.7,237z"/>
			<path class="st2" d="M85.8,237.9c-0.6,0-1.2-0.1-1.7-0.3c-0.5-0.2-1-0.5-1.4-0.8c-0.4-0.4-0.7-0.8-0.9-1.3
				c-0.2-0.5-0.3-1-0.3-1.6c0-0.6,0.1-1.1,0.4-1.6c0.3-0.5,0.6-0.9,1.1-1.3c0.5-0.4,1-0.6,1.7-0.8c0.7-0.2,1.4-0.3,2.2-0.3
				c0.6,0,1.1,0,1.6,0.1c0.5,0.1,1,0.2,1.4,0.4v-0.7c0-0.8-0.2-1.5-0.7-1.9c-0.5-0.4-1.2-0.7-2.1-0.7c-0.7,0-1.3,0.1-2,0.4
				c-0.6,0.2-1.3,0.6-2,1.1l-1-2c1.6-1.1,3.4-1.6,5.2-1.6c1.8,0,3.2,0.4,4.2,1.3c1,0.9,1.5,2.2,1.5,3.9v3.9c0,0.3,0.1,0.6,0.2,0.7
				c0.1,0.1,0.3,0.2,0.6,0.2v2.7c-0.5,0.1-1,0.2-1.4,0.2c-0.6,0-1.1-0.1-1.4-0.4c-0.3-0.3-0.5-0.6-0.6-1.1l-0.1-0.7
				c-0.6,0.7-1.2,1.3-2,1.7C87.5,237.7,86.7,237.9,85.8,237.9z M86.7,235.6c0.5,0,1.1-0.1,1.5-0.3c0.5-0.2,0.9-0.4,1.1-0.8
				c0.4-0.3,0.5-0.6,0.5-0.9v-1.4c-0.4-0.1-0.8-0.3-1.2-0.3c-0.4-0.1-0.9-0.1-1.3-0.1c-0.8,0-1.5,0.2-2,0.6s-0.8,0.9-0.8,1.4
				c0,0.5,0.2,1,0.6,1.4C85.6,235.4,86.1,235.6,86.7,235.6z"/>
			<path class="st2" d="M96.1,220.2h3.2v13.5c0,0.5,0.1,0.8,0.3,1.1c0.2,0.3,0.5,0.4,1,0.4c0.2,0,0.4,0,0.6-0.1
				c0.2-0.1,0.5-0.1,0.7-0.2l0.4,2.4c-0.4,0.2-0.9,0.4-1.5,0.5c-0.6,0.1-1.1,0.2-1.6,0.2c-1,0-1.8-0.3-2.3-0.8
				c-0.6-0.5-0.8-1.3-0.8-2.3V220.2z"/>
			<path class="st2" d="M109.5,237.9c-1,0-1.9-0.2-2.8-0.5c-0.8-0.4-1.5-0.8-2.1-1.4c-0.6-0.6-1-1.3-1.3-2.1
				c-0.3-0.8-0.5-1.6-0.5-2.5c0-0.9,0.2-1.7,0.5-2.5c0.3-0.8,0.7-1.5,1.3-2.1c0.6-0.6,1.3-1.1,2.1-1.4c0.8-0.4,1.7-0.5,2.8-0.5
				s1.9,0.2,2.7,0.5c0.8,0.4,1.5,0.8,2.1,1.4s1,1.3,1.3,2.1c0.3,0.8,0.5,1.6,0.5,2.5c0,0.9-0.2,1.7-0.5,2.5
				c-0.3,0.8-0.7,1.5-1.3,2.1c-0.6,0.6-1.2,1.1-2.1,1.4C111.5,237.8,110.6,237.9,109.5,237.9z M106.2,231.4c0,0.6,0.1,1.1,0.3,1.5
				s0.4,0.9,0.7,1.2c0.3,0.3,0.6,0.6,1,0.8c0.4,0.2,0.8,0.3,1.3,0.3c0.5,0,0.9-0.1,1.3-0.3c0.4-0.2,0.7-0.4,1-0.8s0.5-0.7,0.7-1.2
				s0.3-1,0.3-1.5c0-0.5-0.1-1-0.3-1.5s-0.4-0.9-0.7-1.2s-0.6-0.6-1-0.8c-0.4-0.2-0.8-0.3-1.3-0.3c-0.5,0-0.9,0.1-1.3,0.3
				c-0.4,0.2-0.7,0.5-1,0.8c-0.3,0.3-0.5,0.7-0.7,1.2C106.3,230.4,106.2,230.9,106.2,231.4z"/>
			<path class="st2" d="M123.2,237.8c-0.8,0-1.6-0.2-2.3-0.5c-0.7-0.3-1.3-0.8-1.8-1.4s-0.9-1.3-1.2-2c-0.3-0.8-0.4-1.6-0.4-2.4
				c0-0.9,0.1-1.8,0.4-2.5s0.7-1.5,1.2-2.1c0.5-0.6,1.1-1.1,1.8-1.4c0.7-0.3,1.5-0.5,2.4-0.5c1,0,1.8,0.2,2.6,0.7
				c0.7,0.4,1.3,1,1.8,1.8v-2.2h2.8v12c0,0.9-0.2,1.8-0.5,2.5c-0.4,0.7-0.8,1.4-1.5,1.9c-0.6,0.5-1.4,0.9-2.2,1.2
				c-0.9,0.3-1.8,0.4-2.8,0.4c-1.4,0-2.5-0.2-3.5-0.7c-0.9-0.5-1.7-1.1-2.4-1.9l1.8-1.7c0.5,0.6,1.1,1.1,1.8,1.4
				c0.7,0.3,1.5,0.5,2.3,0.5c0.5,0,1-0.1,1.4-0.2c0.5-0.1,0.9-0.3,1.2-0.6c0.4-0.3,0.6-0.7,0.8-1.1c0.2-0.4,0.3-1,0.3-1.6v-1.6
				c-0.4,0.7-1,1.3-1.8,1.7C124.9,237.6,124.1,237.8,123.2,237.8z M124.3,235.2c0.4,0,0.7-0.1,1-0.2c0.3-0.1,0.6-0.3,0.9-0.5
				c0.3-0.2,0.5-0.4,0.7-0.7c0.2-0.3,0.4-0.5,0.5-0.8v-3c-0.3-0.7-0.7-1.3-1.4-1.8c-0.6-0.4-1.3-0.7-1.9-0.7c-0.5,0-0.9,0.1-1.3,0.3
				c-0.4,0.2-0.7,0.5-1,0.9c-0.3,0.4-0.5,0.8-0.7,1.2s-0.2,0.9-0.2,1.4c0,0.5,0.1,1,0.3,1.4c0.2,0.4,0.4,0.8,0.7,1.2
				s0.7,0.6,1.1,0.8C123.3,235.1,123.8,235.2,124.3,235.2z"/>
		</g>
		<ellipse id="Ellipse_36" class="st3" cx="86.7" cy="87.9" rx="78.9" ry="78.9"/>
		<g id="Group_437" transform="translate(114.313 34.376)">
			<g id="Group_420" transform="translate(22.763 11.286)">
				<path id="Path_175" class="st4" d="M-28,9h-11.3c-4.4,0-8.6,2.1-11.3,5.7C-53.3,11.1-57.4,9-61.9,9h-11.3
					c-1.6,0-2.8,1.3-2.8,2.8v33.9c0,1.6,1.3,2.8,2.8,2.8h16.9c1.6,0,2.8,1.3,2.8,2.8c0,1.6,1.3,2.8,2.8,2.8c1.6,0,2.8-1.3,2.8-2.8
					c0-1.6,1.3-2.8,2.8-2.8H-28c1.6,0,2.8-1.3,2.8-2.8V11.8C-25.2,10.3-26.5,9-28,9C-28,9-28,9-28,9 M-53.4,43.3
					c-0.9-0.3-1.9-0.5-2.8-0.5h-14.1V14.6h8.5c4.7,0,8.5,3.8,8.5,8.5L-53.4,43.3z M-30.8,42.9H-45c-1,0-1.9,0.2-2.8,0.5V23.1
					c0-4.7,3.8-8.5,8.5-8.5h8.5V42.9z"/>
			</g>
			<g id="Group_421" transform="translate(0 0)">
				<path id="Path_176" class="st4" d="M11.9,9h-79.4c-4.7,0-8.5,3.8-8.5,8.5v62.1c0,4.7,3.8,8.5,8.5,8.5h29.5l-2.8,5.6h-3.9
					c-1.6,0-2.8,1.3-2.8,2.8c0,1.6,1.3,2.8,2.8,2.8h33.9c1.6,0,2.8-1.3,2.8-2.8c0-1.6-1.3-2.8-2.8-2.8h-3.9l-2.8-5.6h29.5
					c4.7,0,8.5-3.8,8.5-8.5V17.5C20.3,12.8,16.5,9,11.9,9 M-34.6,93.7l2.8-5.6h7.8l2.8,5.6H-34.6z M14.7,79.5c0,1.6-1.3,2.8-2.8,2.8
					h-79.4c-1.6,0-2.8-1.3-2.8-2.8v-2.8h85L14.7,79.5z M14.7,71.1h-85V17.5c0-1.6,1.3-2.8,2.8-2.8h79.4c1.6,0,2.8,1.3,2.8,2.8
					L14.7,71.1z"/>
			</g>
		</g>
	</g>
	<g id="Group_447" transform="translate(1232.744 844.565)">
		<g class="st1">
			<path class="st2" d="M43,237.7v-17h7.5c0.8,0,1.5,0.2,2.2,0.5s1.2,0.8,1.7,1.3c0.5,0.5,0.9,1.1,1.1,1.8c0.3,0.7,0.4,1.4,0.4,2.1
				c0,1.1-0.3,2.1-0.8,3c-0.6,0.9-1.3,1.6-2.2,2l3.9,6.4h-3.7l-3.5-5.7h-3.3v5.7H43z M46.4,229.1h4.2c0.3,0,0.6-0.1,0.9-0.2
				s0.5-0.3,0.7-0.6c0.2-0.2,0.3-0.5,0.5-0.9c0.1-0.3,0.2-0.7,0.2-1.1c0-0.4-0.1-0.8-0.2-1.1c-0.1-0.3-0.3-0.6-0.5-0.9
				c-0.2-0.2-0.5-0.4-0.7-0.6c-0.3-0.1-0.6-0.2-0.9-0.2h-4V229.1z"/>
			<path class="st2" d="M64.2,237.9c-1,0-1.9-0.2-2.7-0.5c-0.8-0.3-1.5-0.8-2.1-1.4s-1-1.3-1.3-2.1c-0.3-0.8-0.5-1.6-0.5-2.5
				c0-0.9,0.2-1.7,0.5-2.5c0.3-0.8,0.7-1.5,1.3-2.1c0.6-0.6,1.3-1.1,2.1-1.4c0.8-0.4,1.7-0.5,2.8-0.5c1,0,1.9,0.2,2.7,0.5
				c0.8,0.4,1.5,0.8,2.1,1.4c0.6,0.6,1,1.3,1.3,2.1c0.3,0.8,0.4,1.6,0.4,2.4c0,0.2,0,0.4,0,0.6c0,0.2,0,0.4-0.1,0.5h-9.7
				c0,0.5,0.2,0.9,0.4,1.3c0.2,0.4,0.4,0.7,0.7,1c0.3,0.3,0.6,0.5,1,0.6c0.4,0.1,0.8,0.2,1.2,0.2c0.6,0,1.2-0.2,1.8-0.5
				c0.6-0.3,1-0.7,1.2-1.2l2.8,0.8c-0.5,1-1.2,1.7-2.2,2.4C66.8,237.6,65.6,237.9,64.2,237.9z M67.4,230.3c-0.1-0.9-0.4-1.7-1-2.3
				c-0.6-0.6-1.4-0.9-2.2-0.9c-0.4,0-0.8,0.1-1.2,0.2c-0.4,0.2-0.7,0.4-1,0.6c-0.3,0.3-0.5,0.6-0.7,1s-0.3,0.8-0.3,1.3H67.4z"/>
			<path class="st2" d="M71.9,231.4c0-0.9,0.2-1.7,0.5-2.5c0.3-0.8,0.7-1.5,1.3-2.1c0.6-0.6,1.3-1.1,2.1-1.4
				c0.8-0.4,1.7-0.5,2.8-0.5c1.4,0,2.5,0.3,3.5,0.9c1,0.6,1.7,1.4,2.2,2.3l-3.1,1c-0.3-0.5-0.6-0.8-1.1-1.1
				c-0.4-0.2-0.9-0.4-1.5-0.4c-0.5,0-0.9,0.1-1.3,0.3c-0.4,0.2-0.7,0.4-1,0.8s-0.5,0.7-0.7,1.2c-0.2,0.5-0.3,1-0.3,1.5
				c0,0.6,0.1,1.1,0.3,1.5c0.2,0.5,0.4,0.9,0.7,1.2c0.3,0.3,0.6,0.6,1,0.8c0.4,0.2,0.8,0.3,1.3,0.3c0.6,0,1.1-0.1,1.6-0.4
				c0.5-0.3,0.8-0.6,1-1.1l3.1,1c-0.4,1-1.1,1.7-2.1,2.4s-2.2,0.9-3.6,0.9c-1,0-1.9-0.2-2.8-0.5c-0.8-0.4-1.5-0.8-2.1-1.4
				c-0.6-0.6-1-1.3-1.3-2.1C72.1,233.1,71.9,232.3,71.9,231.4z"/>
			<path class="st2" d="M92,237.9c-1,0-1.9-0.2-2.7-0.5c-0.8-0.3-1.5-0.8-2.1-1.4c-0.6-0.6-1-1.3-1.3-2.1c-0.3-0.8-0.5-1.6-0.5-2.5
				c0-0.9,0.2-1.7,0.5-2.5s0.7-1.5,1.3-2.1s1.3-1.1,2.1-1.4c0.8-0.4,1.7-0.5,2.8-0.5c1,0,1.9,0.2,2.7,0.5c0.8,0.4,1.5,0.8,2.1,1.4
				c0.6,0.6,1,1.3,1.3,2.1c0.3,0.8,0.4,1.6,0.4,2.4c0,0.2,0,0.4,0,0.6c0,0.2,0,0.4-0.1,0.5h-9.7c0,0.5,0.2,0.9,0.4,1.3
				c0.2,0.4,0.4,0.7,0.7,1c0.3,0.3,0.6,0.5,1,0.6c0.4,0.1,0.8,0.2,1.2,0.2c0.6,0,1.2-0.2,1.8-0.5c0.6-0.3,1-0.7,1.2-1.2l2.8,0.8
				c-0.5,1-1.2,1.7-2.2,2.4C94.6,237.6,93.4,237.9,92,237.9z M95.2,230.3c-0.1-0.9-0.4-1.7-1-2.3c-0.6-0.6-1.4-0.9-2.2-0.9
				c-0.4,0-0.8,0.1-1.2,0.2c-0.4,0.2-0.7,0.4-1,0.6c-0.3,0.3-0.5,0.6-0.7,1c-0.2,0.4-0.3,0.8-0.3,1.3H95.2z"/>
			<path class="st2" d="M100.5,223.4v-3.2h3.2v3.2H100.5z M100.5,237.7v-12.6h3.2v12.6H100.5z"/>
			<path class="st2" d="M110,237.7l-4.6-12.6h3.3l3.2,10l3.2-10h3l-4.6,12.6H110z"/>
			<path class="st2" d="M125.2,237.9c-1,0-1.9-0.2-2.7-0.5c-0.8-0.3-1.5-0.8-2.1-1.4s-1-1.3-1.3-2.1c-0.3-0.8-0.5-1.6-0.5-2.5
				c0-0.9,0.2-1.7,0.5-2.5c0.3-0.8,0.7-1.5,1.3-2.1c0.6-0.6,1.3-1.1,2.1-1.4c0.8-0.4,1.7-0.5,2.8-0.5c1,0,1.9,0.2,2.7,0.5
				c0.8,0.4,1.5,0.8,2.1,1.4c0.6,0.6,1,1.3,1.3,2.1c0.3,0.8,0.4,1.6,0.4,2.4c0,0.2,0,0.4,0,0.6c0,0.2,0,0.4-0.1,0.5H122
				c0,0.5,0.2,0.9,0.4,1.3c0.2,0.4,0.4,0.7,0.7,1c0.3,0.3,0.6,0.5,1,0.6c0.4,0.1,0.8,0.2,1.2,0.2c0.6,0,1.2-0.2,1.8-0.5
				c0.6-0.3,1-0.7,1.2-1.2l2.8,0.8c-0.5,1-1.2,1.7-2.2,2.4C127.8,237.6,126.6,237.9,125.2,237.9z M128.5,230.3
				c-0.1-0.9-0.4-1.7-1-2.3c-0.6-0.6-1.4-0.9-2.2-0.9c-0.4,0-0.8,0.1-1.2,0.2c-0.4,0.2-0.7,0.4-1,0.6c-0.3,0.3-0.5,0.6-0.7,1
				s-0.3,0.8-0.3,1.3H128.5z"/>
		</g>
		<g id="Group_440" transform="translate(83.829 0)">
			<ellipse id="Ellipse_39" class="st3" cx="2.9" cy="87.9" rx="78.9" ry="78.9"/>
			<g id="Group_433" transform="translate(35.561 36.747)">
				<g id="Group_429" transform="translate(0 0)">
					<path id="Path_184" class="st4" d="M-76,25.1l42.9,16.1l16.1-6l-16.1-6.6v0l10.7-4.6v0l16.1,7.2l16.1-6.1L-33.1,9L-76,25.1z"/>
				</g>
				<g id="Group_430" transform="translate(0 21.466)">
					<path id="Path_185" class="st4" d="M-76,9v48.3l40.2,15.1V24.1L-76,9z M-54.5,57.5l-10.7-4v-5.7l10.7,4V57.5z"/>
				</g>
				<g id="Group_431" transform="translate(45.611 21.464)">
					<path id="Path_186" class="st4" d="M-51.9,15v13.4l-10.7,4V19.1l-13.4,5v48.3l40.2-15.1V9L-51.9,15z"/>
				</g>
			</g>
		</g>
	</g>
	<g id="Group_445" transform="translate(703.855 844.565)">
		<g class="st1">
			<path class="st2" d="M62.8,237.8c-1.2,0-2.4-0.2-3.4-0.7c-1-0.5-1.9-1.1-2.6-1.9c-0.7-0.8-1.3-1.7-1.7-2.8
				c-0.4-1-0.6-2.1-0.6-3.2c0-1.1,0.2-2.2,0.6-3.3s1-2,1.8-2.8c0.7-0.8,1.6-1.4,2.7-1.9c1-0.5,2.1-0.7,3.3-0.7
				c1.2,0,2.4,0.3,3.4,0.8c1,0.5,1.9,1.2,2.6,2c0.7,0.8,1.3,1.7,1.7,2.8s0.6,2.1,0.6,3.2c0,1.1-0.2,2.2-0.6,3.3
				c-0.4,1-1,1.9-1.7,2.7s-1.6,1.4-2.6,1.9S64,237.8,62.8,237.8z M57.9,229.2c0,0.7,0.1,1.4,0.3,2.1s0.5,1.3,1,1.8
				c0.4,0.5,0.9,1,1.6,1.3c0.6,0.3,1.3,0.5,2.1,0.5c0.8,0,1.5-0.2,2.1-0.5s1.1-0.8,1.6-1.3c0.4-0.5,0.7-1.2,1-1.8
				c0.2-0.7,0.3-1.4,0.3-2.1c0-0.7-0.1-1.4-0.3-2.1c-0.2-0.7-0.6-1.3-1-1.8c-0.4-0.5-0.9-0.9-1.6-1.3c-0.6-0.3-1.3-0.5-2.1-0.5
				c-0.8,0-1.5,0.2-2.1,0.5s-1.1,0.8-1.6,1.3s-0.7,1.1-0.9,1.8C58,227.8,57.9,228.5,57.9,229.2z"/>
			<path class="st2" d="M80.9,227.9c-1,0-1.8,0.2-2.6,0.6c-0.8,0.4-1.3,0.9-1.7,1.6v7.6h-3.2v-12.6h3v2.7c0.2-0.4,0.5-0.8,0.8-1.2
				c0.3-0.3,0.6-0.6,1-0.9s0.7-0.5,1.1-0.6c0.4-0.1,0.7-0.2,1-0.2c0.2,0,0.3,0,0.4,0c0.1,0,0.2,0,0.3,0V227.9z"/>
			<path class="st2" d="M87.3,237.9c-0.9,0-1.7-0.2-2.4-0.5c-0.7-0.3-1.4-0.8-1.9-1.4c-0.5-0.6-0.9-1.3-1.2-2.1
				c-0.3-0.8-0.4-1.6-0.4-2.6s0.1-1.8,0.4-2.5c0.3-0.8,0.7-1.5,1.2-2.1c0.5-0.6,1.1-1.1,1.8-1.4c0.7-0.3,1.4-0.5,2.3-0.5
				c0.9,0,1.8,0.2,2.5,0.7c0.7,0.4,1.3,1,1.7,1.8v-7.2h3.2V234c0,0.3,0.1,0.6,0.2,0.7c0.1,0.1,0.3,0.2,0.6,0.2v2.7
				c-0.6,0.1-1,0.2-1.4,0.2c-0.6,0-1-0.1-1.4-0.4s-0.6-0.7-0.6-1.1l-0.1-0.8c-0.5,0.8-1.1,1.4-1.9,1.8
				C89,237.7,88.1,237.9,87.3,237.9z M88.1,235.2c0.3,0,0.6-0.1,0.9-0.2c0.3-0.1,0.6-0.3,0.9-0.4c0.3-0.2,0.5-0.4,0.7-0.7
				c0.2-0.3,0.4-0.5,0.5-0.8v-3c-0.1-0.4-0.3-0.7-0.5-1s-0.5-0.6-0.8-0.8c-0.3-0.2-0.6-0.4-0.9-0.5c-0.3-0.1-0.7-0.2-1-0.2
				c-0.5,0-0.9,0.1-1.3,0.3c-0.4,0.2-0.8,0.5-1,0.9c-0.3,0.4-0.5,0.8-0.7,1.2c-0.2,0.5-0.2,0.9-0.2,1.4c0,0.5,0.1,1,0.3,1.5
				c0.2,0.4,0.4,0.8,0.7,1.2c0.3,0.3,0.7,0.6,1.1,0.8C87.1,235.1,87.6,235.2,88.1,235.2z"/>
			<path class="st2" d="M103.4,237.9c-1,0-1.9-0.2-2.7-0.5c-0.8-0.3-1.5-0.8-2.1-1.4c-0.6-0.6-1-1.3-1.3-2.1
				c-0.3-0.8-0.5-1.6-0.5-2.5c0-0.9,0.2-1.7,0.5-2.5c0.3-0.8,0.7-1.5,1.3-2.1c0.6-0.6,1.3-1.1,2.1-1.4c0.8-0.4,1.7-0.5,2.8-0.5
				s1.9,0.2,2.7,0.5c0.8,0.4,1.5,0.8,2.1,1.4s1,1.3,1.3,2.1c0.3,0.8,0.4,1.6,0.4,2.4c0,0.2,0,0.4,0,0.6c0,0.2,0,0.4-0.1,0.5h-9.7
				c0,0.5,0.2,0.9,0.4,1.3c0.2,0.4,0.4,0.7,0.7,1c0.3,0.3,0.6,0.5,1,0.6c0.4,0.1,0.8,0.2,1.2,0.2c0.6,0,1.2-0.2,1.8-0.5
				c0.6-0.3,1-0.7,1.2-1.2l2.8,0.8c-0.5,1-1.2,1.7-2.2,2.4C106,237.6,104.8,237.9,103.4,237.9z M106.6,230.3c-0.1-0.9-0.4-1.7-1-2.3
				c-0.6-0.6-1.4-0.9-2.2-0.9c-0.4,0-0.8,0.1-1.2,0.2c-0.4,0.2-0.7,0.4-1,0.6c-0.3,0.3-0.5,0.6-0.7,1c-0.2,0.4-0.3,0.8-0.3,1.3
				H106.6z"/>
			<path class="st2" d="M119.4,227.9c-1,0-1.8,0.2-2.6,0.6c-0.8,0.4-1.3,0.9-1.7,1.6v7.6h-3.2v-12.6h3v2.7c0.2-0.4,0.5-0.8,0.8-1.2
				c0.3-0.3,0.6-0.6,1-0.9s0.7-0.5,1.1-0.6c0.4-0.1,0.7-0.2,1-0.2c0.2,0,0.3,0,0.4,0c0.1,0,0.2,0,0.3,0V227.9z"/>
		</g>
		<g id="Group_438" transform="translate(83.83 0)">
			<ellipse id="Ellipse_37" class="st3" cx="2.9" cy="87.9" rx="78.9" ry="78.9"/>
			<g id="Group_436" transform="translate(29.635 40.303)">
				<g id="Group_422" transform="translate(0 0)">
					<path id="Path_177" class="st4" d="M-47.5,60.5h46.6c1.2,0,2.2-0.8,2.5-1.9l10.3-36.1c0.2-0.8,0.1-1.6-0.4-2.3
						c-0.5-0.6-1.2-1-2.1-1h-62.8l-1.8-8.3c-0.3-1.2-1.3-2-2.5-2h-15.6c-1.4,0-2.6,1.2-2.6,2.6c0,0,0,0,0,0c0,1.4,1.1,2.6,2.6,2.6
						c0,0,0,0,0,0h13.6l9.3,41.9c-3.9,1.7-5.7,6.2-4,10.2c1.2,2.8,4,4.7,7.1,4.7h46.6c1.4,0,2.6-1.2,2.6-2.6c0-1.4-1.2-2.6-2.6-2.6
						h-46.6c-1.4,0-2.6-1.2-2.6-2.6C-50.1,61.7-48.9,60.5-47.5,60.5C-47.5,60.5-47.5,60.5-47.5,60.5"/>
				</g>
				<g id="Group_423" transform="translate(25.94 61.847)">
					<path id="Path_178" class="st4" d="M-76,16.7c0,4.3,3.5,7.7,7.7,7.7s7.7-3.5,7.7-7.7c0-4.3-3.5-7.7-7.7-7.7
						C-72.5,9-76,12.5-76,16.7"/>
				</g>
				<g id="Group_424" transform="translate(62.188 61.847)">
					<path id="Path_179" class="st4" d="M-76,16.7c0,4.3,3.5,7.7,7.7,7.7s7.7-3.5,7.7-7.7c0-4.3-3.5-7.7-7.7-7.7
						C-72.5,9-76,12.5-76,16.7"/>
				</g>
			</g>
		</g>
	</g>
	<g id="Group_446" transform="translate(967.537 844.565)">
		<g class="st1">
			<path class="st2" d="M-8.2,237.7v-17h7.5c0.8,0,1.5,0.2,2.2,0.5s1.2,0.8,1.7,1.3c0.5,0.5,0.9,1.1,1.1,1.8
				c0.3,0.7,0.4,1.4,0.4,2.1c0,1.1-0.3,2.1-0.8,3c-0.6,0.9-1.3,1.6-2.2,2l3.9,6.4H1.9l-3.5-5.7h-3.3v5.7H-8.2z M-4.9,229.1h4.2
				c0.3,0,0.6-0.1,0.9-0.2s0.5-0.3,0.7-0.6c0.2-0.2,0.3-0.5,0.5-0.9c0.1-0.3,0.2-0.7,0.2-1.1c0-0.4-0.1-0.8-0.2-1.1
				c-0.1-0.3-0.3-0.6-0.5-0.9c-0.2-0.2-0.5-0.4-0.7-0.6c-0.3-0.1-0.6-0.2-0.9-0.2h-4V229.1z"/>
			<path class="st2" d="M13,237.9c-1,0-1.9-0.2-2.7-0.5c-0.8-0.3-1.5-0.8-2.1-1.4s-1-1.3-1.3-2.1c-0.3-0.8-0.5-1.6-0.5-2.5
				c0-0.9,0.2-1.7,0.5-2.5c0.3-0.8,0.7-1.5,1.3-2.1c0.6-0.6,1.3-1.1,2.1-1.4c0.8-0.4,1.7-0.5,2.8-0.5c1,0,1.9,0.2,2.7,0.5
				c0.8,0.4,1.5,0.8,2.1,1.4c0.6,0.6,1,1.3,1.3,2.1c0.3,0.8,0.4,1.6,0.4,2.4c0,0.2,0,0.4,0,0.6c0,0.2,0,0.4-0.1,0.5H9.7
				c0,0.5,0.2,0.9,0.4,1.3c0.2,0.4,0.4,0.7,0.7,1c0.3,0.3,0.6,0.5,1,0.6c0.4,0.1,0.8,0.2,1.2,0.2c0.6,0,1.2-0.2,1.8-0.5
				c0.6-0.3,1-0.7,1.2-1.2l2.8,0.8c-0.5,1-1.2,1.7-2.2,2.4C15.6,237.6,14.4,237.9,13,237.9z M16.2,230.3c-0.1-0.9-0.4-1.7-1-2.3
				c-0.6-0.6-1.4-0.9-2.2-0.9c-0.4,0-0.8,0.1-1.2,0.2c-0.4,0.2-0.7,0.4-1,0.6c-0.3,0.3-0.5,0.6-0.7,1s-0.3,0.8-0.3,1.3H16.2z"/>
			<path class="st2" d="M24.5,237.7l-4.6-12.6h3.3l3.2,10l3.2-10h3L28,237.7H24.5z"/>
			<path class="st2" d="M34.3,223.4v-3.2h3.2v3.2H34.3z M34.3,237.7v-12.6h3.2v12.6H34.3z"/>
			<path class="st2" d="M46.3,237.9c-1,0-1.9-0.2-2.7-0.5c-0.8-0.3-1.5-0.8-2.1-1.4s-1-1.3-1.3-2.1c-0.3-0.8-0.5-1.6-0.5-2.5
				c0-0.9,0.2-1.7,0.5-2.5c0.3-0.8,0.7-1.5,1.3-2.1c0.6-0.6,1.3-1.1,2.1-1.4c0.8-0.4,1.7-0.5,2.8-0.5c1,0,1.9,0.2,2.7,0.5
				c0.8,0.4,1.5,0.8,2.1,1.4c0.6,0.6,1,1.3,1.3,2.1c0.3,0.8,0.4,1.6,0.4,2.4c0,0.2,0,0.4,0,0.6c0,0.2,0,0.4-0.1,0.5h-9.7
				c0,0.5,0.2,0.9,0.4,1.3c0.2,0.4,0.4,0.7,0.7,1c0.3,0.3,0.6,0.5,1,0.6c0.4,0.1,0.8,0.2,1.2,0.2c0.6,0,1.2-0.2,1.8-0.5
				c0.6-0.3,1-0.7,1.2-1.2l2.8,0.8c-0.5,1-1.2,1.7-2.2,2.4C48.9,237.6,47.7,237.9,46.3,237.9z M49.6,230.3c-0.1-0.9-0.4-1.7-1-2.3
				c-0.6-0.6-1.4-0.9-2.2-0.9c-0.4,0-0.8,0.1-1.2,0.2c-0.4,0.2-0.7,0.4-1,0.6c-0.3,0.3-0.5,0.6-0.7,1s-0.3,0.8-0.3,1.3H49.6z"/>
			<path class="st2" d="M70.1,225.1h3l-5.3,12.6h-2.6l-2.2-5.5l-2.1,5.5h-2.6l-5.2-12.6h3l3.7,9.6l1.5-4.1l-2.2-5.4h2.6l1.3,3.9
				l1.3-3.9H67l-2.2,5.4l1.5,4.1L70.1,225.1z"/>
			<path class="st2" d="M88.3,220.7l-11.9,17h-3.6l11.9-17H88.3z"/>
			<path class="st2" d="M93.7,220.7h2.9l6.5,17h-3.4l-1.6-4.2h-6l-1.6,4.2h-3.4L93.7,220.7z M97.5,231.1l-2.4-6.7l-2.4,6.7H97.5z"/>
			<path class="st2" d="M112.2,237.9c-1,0-1.9-0.2-2.6-0.7c-0.7-0.4-1.3-1-1.7-1.8v7.3h-3.2v-17.7h2.8v2.2c0.5-0.7,1.1-1.3,1.8-1.7
				c0.7-0.4,1.6-0.6,2.5-0.6c0.8,0,1.6,0.2,2.4,0.5c0.7,0.3,1.3,0.8,1.9,1.4s0.9,1.3,1.2,2.1s0.4,1.6,0.4,2.5c0,0.9-0.1,1.8-0.4,2.6
				c-0.3,0.8-0.7,1.5-1.1,2.1c-0.5,0.6-1.1,1.1-1.7,1.4S113,237.9,112.2,237.9z M111.1,235.2c0.5,0,0.9-0.1,1.3-0.3
				c0.4-0.2,0.8-0.5,1-0.8c0.3-0.4,0.5-0.8,0.7-1.2c0.2-0.5,0.2-0.9,0.2-1.4c0-0.5-0.1-1-0.3-1.5c-0.2-0.5-0.4-0.9-0.7-1.2
				c-0.3-0.3-0.7-0.6-1.1-0.8c-0.4-0.2-0.9-0.3-1.4-0.3c-0.3,0-0.6,0.1-0.9,0.2c-0.3,0.1-0.6,0.3-0.9,0.4c-0.3,0.2-0.5,0.4-0.7,0.7
				c-0.2,0.3-0.4,0.5-0.5,0.8v3c0.3,0.7,0.7,1.3,1.3,1.8C109.8,235,110.4,235.2,111.1,235.2z"/>
			<path class="st2" d="M127.4,237.9c-1,0-1.9-0.2-2.6-0.7c-0.7-0.4-1.3-1-1.7-1.8v7.3h-3.2v-17.7h2.8v2.2c0.5-0.7,1.1-1.3,1.8-1.7
				c0.7-0.4,1.6-0.6,2.5-0.6c0.8,0,1.6,0.2,2.4,0.5c0.7,0.3,1.3,0.8,1.9,1.4s0.9,1.3,1.2,2.1s0.4,1.6,0.4,2.5c0,0.9-0.1,1.8-0.4,2.6
				c-0.3,0.8-0.7,1.5-1.1,2.1c-0.5,0.6-1.1,1.1-1.7,1.4S128.2,237.9,127.4,237.9z M126.3,235.2c0.5,0,0.9-0.1,1.3-0.3
				c0.4-0.2,0.8-0.5,1-0.8c0.3-0.4,0.5-0.8,0.7-1.2c0.2-0.5,0.2-0.9,0.2-1.4c0-0.5-0.1-1-0.3-1.5c-0.2-0.5-0.4-0.9-0.7-1.2
				c-0.3-0.3-0.7-0.6-1.1-0.8c-0.4-0.2-0.9-0.3-1.4-0.3c-0.3,0-0.6,0.1-0.9,0.2c-0.3,0.1-0.6,0.3-0.9,0.4c-0.3,0.2-0.5,0.4-0.7,0.7
				c-0.2,0.3-0.4,0.5-0.5,0.8v3c0.3,0.7,0.7,1.3,1.3,1.8C125,235,125.6,235.2,126.3,235.2z"/>
			<path class="st2" d="M142.6,227.9c-1,0-1.8,0.2-2.6,0.6c-0.8,0.4-1.3,0.9-1.7,1.6v7.6h-3.2v-12.6h3v2.7c0.2-0.4,0.5-0.8,0.8-1.2
				s0.6-0.6,1-0.9c0.4-0.3,0.7-0.5,1.1-0.6c0.4-0.1,0.7-0.2,1-0.2c0.2,0,0.3,0,0.4,0s0.2,0,0.3,0V227.9z"/>
			<path class="st2" d="M149.5,237.9c-1,0-1.9-0.2-2.8-0.5c-0.8-0.4-1.5-0.8-2.1-1.4c-0.6-0.6-1-1.3-1.3-2.1s-0.5-1.6-0.5-2.5
				c0-0.9,0.2-1.7,0.5-2.5s0.7-1.5,1.3-2.1c0.6-0.6,1.3-1.1,2.1-1.4c0.8-0.4,1.7-0.5,2.8-0.5c1,0,1.9,0.2,2.7,0.5
				c0.8,0.4,1.5,0.8,2.1,1.4c0.6,0.6,1,1.3,1.3,2.1c0.3,0.8,0.5,1.6,0.5,2.5c0,0.9-0.2,1.7-0.5,2.5c-0.3,0.8-0.7,1.5-1.3,2.1
				c-0.6,0.6-1.2,1.1-2.1,1.4S150.6,237.9,149.5,237.9z M146.3,231.4c0,0.6,0.1,1.1,0.3,1.5s0.4,0.9,0.7,1.2c0.3,0.3,0.6,0.6,1,0.8
				c0.4,0.2,0.8,0.3,1.3,0.3c0.5,0,0.9-0.1,1.3-0.3c0.4-0.2,0.7-0.4,1-0.8s0.5-0.7,0.7-1.2s0.3-1,0.3-1.5c0-0.5-0.1-1-0.3-1.5
				s-0.4-0.9-0.7-1.2s-0.6-0.6-1-0.8c-0.4-0.2-0.8-0.3-1.3-0.3c-0.5,0-0.9,0.1-1.3,0.3c-0.4,0.2-0.7,0.5-1,0.8
				c-0.3,0.3-0.5,0.7-0.7,1.2C146.3,230.4,146.3,230.9,146.3,231.4z"/>
			<path class="st2" d="M161.2,237.7l-4.6-12.6h3.3l3.2,10l3.2-10h3l-4.6,12.6H161.2z"/>
			<path class="st2" d="M176.4,237.9c-1,0-1.9-0.2-2.7-0.5c-0.8-0.3-1.5-0.8-2.1-1.4c-0.6-0.6-1-1.3-1.3-2.1
				c-0.3-0.8-0.5-1.6-0.5-2.5c0-0.9,0.2-1.7,0.5-2.5s0.7-1.5,1.3-2.1s1.3-1.1,2.1-1.4c0.8-0.4,1.7-0.5,2.8-0.5c1,0,1.9,0.2,2.7,0.5
				c0.8,0.4,1.5,0.8,2.1,1.4c0.6,0.6,1,1.3,1.3,2.1c0.3,0.8,0.4,1.6,0.4,2.4c0,0.2,0,0.4,0,0.6c0,0.2,0,0.4-0.1,0.5h-9.7
				c0,0.5,0.2,0.9,0.4,1.3c0.2,0.4,0.4,0.7,0.7,1c0.3,0.3,0.6,0.5,1,0.6c0.4,0.1,0.8,0.2,1.2,0.2c0.6,0,1.2-0.2,1.8-0.5
				c0.6-0.3,1-0.7,1.2-1.2l2.8,0.8c-0.5,1-1.2,1.7-2.2,2.4C179,237.6,177.8,237.9,176.4,237.9z M179.7,230.3c-0.1-0.9-0.4-1.7-1-2.3
				c-0.6-0.6-1.4-0.9-2.2-0.9c-0.4,0-0.8,0.1-1.2,0.2c-0.4,0.2-0.7,0.4-1,0.6c-0.3,0.3-0.5,0.6-0.7,1c-0.2,0.4-0.3,0.8-0.3,1.3
				H179.7z"/>
		</g>
		<g id="Group_439" transform="translate(83.83 0)">
			<ellipse id="Ellipse_38" class="st3" cx="2.9" cy="87.9" rx="78.9" ry="78.9"/>
			<g id="Group_435" transform="translate(34.376 30.82)">
				<g id="Group_425" transform="translate(16.015 15.356)">
					<path id="Path_180" class="st4" d="M-17.7,21.3H-33c-1,0-1.9,0.5-2.5,1.2l-5.6,7.5L-47,11.2c-0.4-1.1-1.3-2-2.5-2.1
						c-1.2-0.2-2.4,0.4-3,1.4l-6.8,10.8h-13.6c-1.7,0-3.1,1.4-3.1,3.1c0,0,0,0,0,0c0,1.7,1.4,3.1,3.1,3.1c0,0,0,0,0,0h15.4
						c1.1,0,2-0.5,2.6-1.4l4.1-6.6l5.7,18.2c0.3,1.1,1.3,1.9,2.4,2.1c0.2,0,0.3,0,0.5,0c1,0,1.9-0.5,2.5-1.2l8.3-11.1h13.8
						c1.7,0,3.1-1.4,3.1-3.1S-16,21.3-17.7,21.3"/>
				</g>
				<g id="Group_426" transform="translate(16.018 0)">
					<path id="Path_181" class="st4" d="M-3.2,77.5l-18.3-18.3c4.5-5.5,7-12.3,7-19.4c0-17-13.8-30.7-30.7-30.7
						C-62.2,9-76,22.8-76,39.7c0,17,13.8,30.7,30.7,30.7c7.1,0,13.9-2.5,19.4-6.9l18.3,18.3c1.2,1.2,3.2,1.1,4.3-0.1
						C-2.1,80.5-2.1,78.6-3.2,77.5 M-69.9,39.7c0-13.6,11-24.6,24.6-24.6c13.6,0,24.5,11,24.6,24.6c0,6.5-2.6,12.8-7.2,17.4
						c0,0,0,0,0,0c0,0,0,0,0,0c-4.6,4.6-10.8,7.2-17.4,7.2C-58.9,64.3-69.8,53.3-69.9,39.7"/>
				</g>
				<g id="Group_427" transform="translate(0 47.024)">
					<path id="Path_182" class="st4" d="M-51.1,9C-64.9,9-76,20.1-76,33.9s11.1,24.9,24.9,24.9s24.9-11.1,24.9-24.9l0,0
						C-26.3,20.1-37.4,9-51.1,9 M-37.1,26.9l-14.5,16.6c-0.4,0.4-0.9,0.7-1.5,0.7c0,0,0,0-0.1,0c-0.5,0-1.1-0.2-1.5-0.6l-8.3-8.3
						c-0.8-0.8-0.8-2.1,0-2.9c0.8-0.8,2.1-0.8,2.9,0l6.7,6.7l13-14.9c0.7-0.9,2-1,2.9-0.3C-36.5,24.7-36.4,26-37.1,26.9
						C-37.1,26.9-37.1,26.9-37.1,26.9"/>
				</g>
			</g>
		</g>
	</g>
	<g id="Group_453" transform="translate(714.523 1209.317)">
		<g class="st1">
			<path class="st2" d="M10.6,239.8v-17h3.3v17H10.6z"/>
			<path class="st2" d="M28.8,239.8h-3.2v-7.1c0-1-0.2-1.7-0.5-2.2c-0.4-0.5-0.8-0.7-1.5-0.7c-0.3,0-0.6,0.1-1,0.2s-0.7,0.3-0.9,0.5
				c-0.3,0.2-0.6,0.5-0.8,0.8c-0.2,0.3-0.4,0.7-0.5,1.1v7.3h-3.2v-12.6H20v2.3c0.5-0.8,1.1-1.4,2-1.9c0.9-0.4,1.9-0.7,3-0.7
				c0.8,0,1.4,0.1,1.9,0.4s0.9,0.7,1.2,1.1c0.3,0.5,0.5,1,0.6,1.6c0.1,0.6,0.2,1.2,0.2,1.8V239.8z"/>
			<path class="st2" d="M34.7,239.8l-4.6-12.6h3.3l3.2,10l3.2-10h3l-4.6,12.6H34.7z"/>
			<path class="st2" d="M49.9,240.1c-1,0-1.9-0.2-2.8-0.5c-0.8-0.4-1.5-0.8-2.1-1.4c-0.6-0.6-1-1.3-1.3-2.1
				c-0.3-0.8-0.5-1.6-0.5-2.5c0-0.9,0.2-1.7,0.5-2.5c0.3-0.8,0.7-1.5,1.3-2.1c0.6-0.6,1.3-1.1,2.1-1.4c0.8-0.4,1.7-0.5,2.8-0.5
				s1.9,0.2,2.7,0.5c0.8,0.4,1.5,0.8,2.1,1.4s1,1.3,1.3,2.1c0.3,0.8,0.5,1.6,0.5,2.5c0,0.9-0.2,1.7-0.5,2.5
				c-0.3,0.8-0.7,1.5-1.3,2.1c-0.6,0.6-1.2,1.1-2.1,1.4C51.8,239.9,50.9,240.1,49.9,240.1z M46.6,233.5c0,0.6,0.1,1.1,0.3,1.5
				s0.4,0.9,0.7,1.2c0.3,0.3,0.6,0.6,1,0.8c0.4,0.2,0.8,0.3,1.3,0.3c0.5,0,0.9-0.1,1.3-0.3c0.4-0.2,0.7-0.4,1-0.8s0.5-0.7,0.7-1.2
				s0.3-1,0.3-1.5c0-0.5-0.1-1-0.3-1.5s-0.4-0.9-0.7-1.2s-0.6-0.6-1-0.8c-0.4-0.2-0.8-0.3-1.3-0.3c-0.5,0-0.9,0.1-1.3,0.3
				c-0.4,0.2-0.7,0.5-1,0.8c-0.3,0.3-0.5,0.7-0.7,1.2C46.7,232.5,46.6,233,46.6,233.5z"/>
			<path class="st2" d="M58.6,225.5v-3.2h3.2v3.2H58.6z M58.6,239.8v-12.6h3.2v12.6H58.6z"/>
			<path class="st2" d="M64,233.5c0-0.9,0.2-1.7,0.5-2.5c0.3-0.8,0.7-1.5,1.3-2.1c0.6-0.6,1.3-1.1,2.1-1.4c0.8-0.4,1.7-0.5,2.8-0.5
				c1.4,0,2.5,0.3,3.5,0.9c1,0.6,1.7,1.4,2.2,2.3l-3.1,1c-0.3-0.5-0.6-0.8-1.1-1.1s-0.9-0.4-1.5-0.4c-0.5,0-0.9,0.1-1.3,0.3
				c-0.4,0.2-0.7,0.4-1,0.8c-0.3,0.3-0.5,0.7-0.7,1.2c-0.2,0.5-0.3,1-0.3,1.5c0,0.6,0.1,1.1,0.3,1.5c0.2,0.5,0.4,0.9,0.7,1.2
				c0.3,0.3,0.6,0.6,1,0.8c0.4,0.2,0.8,0.3,1.3,0.3c0.6,0,1.1-0.1,1.6-0.4c0.5-0.3,0.8-0.6,1-1.1l3.1,1c-0.4,1-1.1,1.7-2.1,2.4
				c-1,0.6-2.2,0.9-3.6,0.9c-1,0-1.9-0.2-2.8-0.5s-1.5-0.8-2.1-1.4c-0.6-0.6-1-1.3-1.3-2.1S64,234.4,64,233.5z"/>
			<path class="st2" d="M84,240.1c-1,0-1.9-0.2-2.7-0.5c-0.8-0.3-1.5-0.8-2.1-1.4c-0.6-0.6-1-1.3-1.3-2.1c-0.3-0.8-0.5-1.6-0.5-2.5
				c0-0.9,0.2-1.7,0.5-2.5c0.3-0.8,0.7-1.5,1.3-2.1c0.6-0.6,1.3-1.1,2.1-1.4c0.8-0.4,1.7-0.5,2.8-0.5s1.9,0.2,2.7,0.5
				c0.8,0.4,1.5,0.8,2.1,1.4s1,1.3,1.3,2.1c0.3,0.8,0.4,1.6,0.4,2.4c0,0.2,0,0.4,0,0.6c0,0.2,0,0.4-0.1,0.5h-9.7
				c0,0.5,0.2,0.9,0.4,1.3c0.2,0.4,0.4,0.7,0.7,1c0.3,0.3,0.6,0.5,1,0.6c0.4,0.1,0.8,0.2,1.2,0.2c0.6,0,1.2-0.2,1.8-0.5
				c0.6-0.3,1-0.7,1.2-1.2l2.8,0.8c-0.5,1-1.2,1.7-2.2,2.4C86.6,239.7,85.4,240.1,84,240.1z M87.3,232.5c-0.1-0.9-0.4-1.7-1-2.3
				c-0.6-0.6-1.4-0.9-2.2-0.9c-0.4,0-0.8,0.1-1.2,0.2c-0.4,0.2-0.7,0.4-1,0.6c-0.3,0.3-0.5,0.6-0.7,1c-0.2,0.4-0.3,0.8-0.3,1.3H87.3
				z"/>
			<path class="st2" d="M112.5,239.8v-11.3l-4.4,8.4h-1.8l-4.4-8.4v11.3h-3.3v-17h3.6l5,9.7l5.1-9.7h3.5v17H112.5z"/>
			<path class="st2" d="M122.4,240.1c-0.6,0-1.2-0.1-1.7-0.3c-0.5-0.2-1-0.5-1.4-0.8c-0.4-0.4-0.7-0.8-0.9-1.3
				c-0.2-0.5-0.3-1-0.3-1.6c0-0.6,0.1-1.1,0.4-1.6c0.3-0.5,0.6-0.9,1.1-1.3c0.5-0.4,1-0.6,1.7-0.8c0.7-0.2,1.4-0.3,2.2-0.3
				c0.6,0,1.1,0,1.6,0.1c0.5,0.1,1,0.2,1.4,0.4v-0.7c0-0.8-0.2-1.5-0.7-1.9c-0.5-0.4-1.2-0.7-2.1-0.7c-0.7,0-1.3,0.1-2,0.4
				c-0.6,0.2-1.3,0.6-2,1.1l-1-2c1.6-1.1,3.4-1.6,5.2-1.6c1.8,0,3.2,0.4,4.2,1.3c1,0.9,1.5,2.2,1.5,3.9v3.9c0,0.3,0.1,0.6,0.2,0.7
				c0.1,0.1,0.3,0.2,0.6,0.2v2.7c-0.5,0.1-1,0.2-1.4,0.2c-0.6,0-1.1-0.1-1.4-0.4c-0.3-0.3-0.5-0.6-0.6-1.1l-0.1-0.7
				c-0.6,0.7-1.2,1.3-2,1.7C124.1,239.9,123.3,240.1,122.4,240.1z M123.3,237.7c0.5,0,1.1-0.1,1.5-0.3c0.5-0.2,0.9-0.4,1.1-0.8
				c0.4-0.3,0.5-0.6,0.5-0.9v-1.4c-0.4-0.1-0.8-0.3-1.2-0.3c-0.4-0.1-0.9-0.1-1.3-0.1c-0.8,0-1.5,0.2-2,0.6s-0.8,0.9-0.8,1.4
				c0,0.5,0.2,1,0.6,1.4C122.2,237.5,122.7,237.7,123.3,237.7z"/>
			<path class="st2" d="M140.2,239.2c-0.4,0.2-1,0.4-1.6,0.6c-0.6,0.2-1.3,0.3-2,0.3c-0.4,0-0.9-0.1-1.3-0.2c-0.4-0.1-0.7-0.3-1-0.5
				s-0.5-0.6-0.7-1c-0.2-0.4-0.3-0.9-0.3-1.4v-7.2h-1.7v-2.5h1.7v-4.1h3.2v4.1h2.6v2.5h-2.6v6.1c0,0.4,0.1,0.8,0.3,0.9
				s0.5,0.3,0.9,0.3s0.7-0.1,1-0.2c0.3-0.1,0.6-0.2,0.8-0.3L140.2,239.2z"/>
			<path class="st2" d="M140.7,233.5c0-0.9,0.2-1.7,0.5-2.5c0.3-0.8,0.7-1.5,1.3-2.1c0.6-0.6,1.3-1.1,2.1-1.4
				c0.8-0.4,1.7-0.5,2.8-0.5c1.4,0,2.5,0.3,3.5,0.9c1,0.6,1.7,1.4,2.2,2.3l-3.1,1c-0.3-0.5-0.6-0.8-1.1-1.1s-0.9-0.4-1.5-0.4
				c-0.5,0-0.9,0.1-1.3,0.3c-0.4,0.2-0.7,0.4-1,0.8c-0.3,0.3-0.5,0.7-0.7,1.2c-0.2,0.5-0.3,1-0.3,1.5c0,0.6,0.1,1.1,0.3,1.5
				c0.2,0.5,0.4,0.9,0.7,1.2c0.3,0.3,0.6,0.6,1,0.8c0.4,0.2,0.8,0.3,1.3,0.3c0.6,0,1.1-0.1,1.6-0.4c0.5-0.3,0.8-0.6,1-1.1l3.1,1
				c-0.4,1-1.1,1.7-2.1,2.4c-1,0.6-2.2,0.9-3.6,0.9c-1,0-1.9-0.2-2.8-0.5s-1.5-0.8-2.1-1.4c-0.6-0.6-1-1.3-1.3-2.1
				S140.7,234.4,140.7,233.5z"/>
			<path class="st2" d="M166.7,239.8h-3.2v-7.1c0-1-0.2-1.7-0.6-2.2s-0.9-0.7-1.6-0.7c-0.3,0-0.6,0.1-0.9,0.2
				c-0.3,0.1-0.6,0.3-0.9,0.5c-0.3,0.2-0.6,0.5-0.8,0.8c-0.2,0.3-0.4,0.7-0.5,1.1v7.3h-3.2v-17.5h3.2v7.3c0.5-0.8,1.1-1.4,1.9-1.9
				s1.7-0.7,2.6-0.7c0.8,0,1.5,0.1,2,0.4c0.5,0.3,0.9,0.7,1.2,1.1c0.3,0.5,0.5,1,0.6,1.6s0.2,1.2,0.2,1.8V239.8z"/>
		</g>
		<g id="Group_441" transform="translate(84.692 0)">
			<ellipse id="Ellipse_40" class="st3" cx="3.7" cy="88.7" rx="79.7" ry="79.7"/>
			<g id="Group_434" transform="translate(40.717 34.729)">
				<g id="Group_406" transform="translate(11.005 17.576)">
					<path id="Path_161" class="st4" d="M-57.4,9h-15.9c-1.5,0-2.7,1.2-2.7,2.7c0,0,0,0,0,0c0,1.5,1.2,2.7,2.7,2.7c0,0,0,0,0,0h15.9
						c1.5,0,2.7-1.2,2.7-2.7S-55.9,9-57.4,9"/>
				</g>
				<g id="Group_407" transform="translate(11.005 28.266)">
					<path id="Path_162" class="st4" d="M-57.4,9h-15.9c-1.5,0-2.7,1.2-2.7,2.7c0,0,0,0,0,0c0,1.5,1.2,2.7,2.7,2.7c0,0,0,0,0,0h15.9
						c1.5,0,2.7-1.2,2.7-2.7S-55.9,9-57.4,9"/>
				</g>
				<g id="Group_408" transform="translate(11.005 38.959)">
					<path id="Path_163" class="st4" d="M-57.4,9h-15.9c-1.5,0-2.7,1.2-2.7,2.7c0,0,0,0,0,0c0,1.5,1.2,2.7,2.7,2.7c0,0,0,0,0,0h15.9
						c1.5,0,2.7-1.2,2.7-2.7S-55.9,9-57.4,9"/>
				</g>
				<g id="Group_409" transform="translate(11.005 49.65)">
					<path id="Path_164" class="st4" d="M-57.4,9h-15.9c-1.5,0-2.7,1.2-2.7,2.7c0,0,0,0,0,0c0,1.5,1.2,2.7,2.7,2.7c0,0,0,0,0,0h15.9
						c1.5,0,2.7-1.2,2.7-2.7S-55.9,9-57.4,9"/>
				</g>
				<g id="Group_410" transform="translate(11.005 60.52)">
					<path id="Path_165" class="st4" d="M-57.4,9h-15.9c-1.5,0-2.7,1.2-2.7,2.7c0,0,0,0,0,0c0,1.5,1.2,2.7,2.7,2.7c0,0,0,0,0,0h15.9
						c1.5,0,2.7-1.2,2.7-2.7S-55.9,9-57.4,9"/>
				</g>
				<g id="Group_411" transform="translate(35.93 17.577)">
					<path id="Path_166" class="st4" d="M-73.3,14.3h15.9c1.5,0,2.7-1.2,2.7-2.7S-55.9,9-57.4,9h-15.9c-1.5,0-2.7,1.2-2.7,2.7
						S-74.8,14.3-73.3,14.3"/>
				</g>
				<g id="Group_412" transform="translate(35.93 28.267)">
					<path id="Path_167" class="st4" d="M-73.3,14.3h15.9c1.5,0,2.7-1.2,2.7-2.7S-55.9,9-57.4,9h-15.9c-1.5,0-2.7,1.2-2.7,2.7
						S-74.8,14.3-73.3,14.3"/>
				</g>
				<g id="Group_413" transform="translate(35.931 38.957)">
					<path id="Path_168" class="st4" d="M-63,11.7c0-1.5-1.2-2.7-2.7-2.7c0,0,0,0,0,0h-7.7c-1.5,0-2.7,1.2-2.7,2.7c0,0,0,0,0,0
						c0,1.5,1.2,2.7,2.7,2.7c0,0,0,0,0,0h7.7C-64.2,14.3-63,13.2-63,11.7C-63,11.7-63,11.7-63,11.7"/>
				</g>
				<g id="Group_414" transform="translate(55.133 61.061)">
					<path id="Path_169" class="st4" d="M-56.9,9.6c-1.2-0.9-2.8-0.7-3.8,0.4c0,0,0,0,0,0l-6.9,8.6l-4.3-3.1
						c-1.2-0.9-2.9-0.6-3.7,0.6c0,0,0,0,0,0c-0.9,1.2-0.6,2.9,0.6,3.7l6.3,4.6c1.2,0.8,2.8,0.6,3.7-0.5l8.5-10.6
						C-55.5,12.2-55.7,10.5-56.9,9.6"/>
				</g>
				<g id="Group_415" transform="translate(0 0)">
					<path id="Path_170" class="st4" d="M5,62.4C1.6,58.9-2.9,56.7-7.8,56V19.8C-7.8,13.8-12.6,9-18.5,9h-46.7
						C-71.2,9-76,13.8-76,19.8v61.9c0,5.9,4.8,10.8,10.8,10.8h37.6c4.2,5,10.4,7.8,16.9,7.8c12.3,0,22.2-10,22.2-22.2
						C11.4,72.2,9.1,66.6,5,62.4 M-70.7,81.7V19.8c0-3,2.4-5.4,5.4-5.4h46.7c3,0,5.4,2.4,5.4,5.4v36.2c-12.2,1.3-21,12.3-19.7,24.5
						c0.2,2.3,0.9,4.6,1.8,6.7h-34.2C-68.2,87.1-70.6,84.7-70.7,81.7 M-10.8,94.9c-9.3,0-16.9-7.6-16.9-16.9s7.6-16.9,16.9-16.9
						c0.1,0,0.2,0,0.3,0h0C-1.2,61.3,6.2,69.1,6,78.4C5.8,87.5-1.6,94.8-10.8,94.9"/>
				</g>
			</g>
		</g>
	</g>
	<g id="Group_452" transform="translate(974.76 1209.317)">
		<g class="st1">
			<path class="st2" d="M39.3,239.8v-17h7.2c0.8,0,1.5,0.2,2.2,0.5s1.2,0.8,1.7,1.3c0.5,0.5,0.9,1.1,1.1,1.8s0.4,1.4,0.4,2.1
				c0,0.7-0.1,1.4-0.4,2.1c-0.3,0.7-0.6,1.3-1.1,1.8c-0.5,0.5-1,1-1.7,1.3c-0.7,0.3-1.4,0.5-2.2,0.5h-4v5.7H39.3z M42.6,231.2h3.8
				c0.6,0,1.1-0.2,1.5-0.7c0.4-0.5,0.6-1.2,0.6-2c0-0.4-0.1-0.8-0.2-1.2c-0.1-0.3-0.3-0.6-0.5-0.9c-0.2-0.2-0.5-0.4-0.7-0.5
				c-0.3-0.1-0.6-0.2-0.9-0.2h-3.7V231.2z"/>
			<path class="st2" d="M57.3,240.1c-0.6,0-1.2-0.1-1.7-0.3c-0.5-0.2-1-0.5-1.4-0.8c-0.4-0.4-0.7-0.8-0.9-1.3
				c-0.2-0.5-0.3-1-0.3-1.6c0-0.6,0.1-1.1,0.4-1.6c0.3-0.5,0.6-0.9,1.1-1.3s1-0.6,1.7-0.8c0.7-0.2,1.4-0.3,2.2-0.3
				c0.6,0,1.1,0,1.6,0.1c0.5,0.1,1,0.2,1.4,0.4v-0.7c0-0.8-0.2-1.5-0.7-1.9s-1.2-0.7-2.1-0.7c-0.7,0-1.3,0.1-2,0.4
				c-0.6,0.2-1.3,0.6-2,1.1l-1-2c1.6-1.1,3.4-1.6,5.2-1.6c1.8,0,3.2,0.4,4.2,1.3c1,0.9,1.5,2.2,1.5,3.9v3.9c0,0.3,0.1,0.6,0.2,0.7
				c0.1,0.1,0.3,0.2,0.6,0.2v2.7c-0.5,0.1-1,0.2-1.4,0.2c-0.6,0-1.1-0.1-1.4-0.4c-0.3-0.3-0.5-0.6-0.6-1.1l-0.1-0.7
				c-0.6,0.7-1.2,1.3-2,1.7C59,239.9,58.2,240.1,57.3,240.1z M58.2,237.7c0.5,0,1.1-0.1,1.5-0.3c0.5-0.2,0.9-0.4,1.1-0.8
				c0.4-0.3,0.5-0.6,0.5-0.9v-1.4c-0.4-0.1-0.8-0.3-1.2-0.3s-0.9-0.1-1.3-0.1c-0.8,0-1.5,0.2-2,0.6c-0.5,0.4-0.8,0.9-0.8,1.4
				c0,0.5,0.2,1,0.6,1.4C57.1,237.5,57.6,237.7,58.2,237.7z"/>
			<path class="st2" d="M67.6,242.3c0.3,0.1,0.5,0.1,0.8,0.2s0.5,0.1,0.6,0.1c0.2,0,0.4,0,0.6-0.1c0.2-0.1,0.3-0.2,0.5-0.4
				c0.1-0.2,0.3-0.5,0.4-0.8c0.1-0.4,0.3-0.8,0.5-1.3l-5-12.6h3.3l3.4,9.8l3-9.8h3l-5.3,15.1c-0.3,0.9-0.8,1.6-1.6,2.2
				c-0.7,0.6-1.6,0.8-2.7,0.8c-0.3,0-0.5,0-0.8-0.1s-0.5-0.1-0.8-0.2V242.3z"/>
			<path class="st2" d="M100,239.8h-3.2v-7.1c0-1-0.2-1.7-0.5-2.2c-0.3-0.5-0.8-0.7-1.4-0.7c-0.6,0-1.2,0.2-1.8,0.7
				c-0.6,0.5-1,1.1-1.2,1.9v7.3h-3.2v-7.1c0-1-0.2-1.7-0.5-2.2c-0.3-0.5-0.8-0.7-1.4-0.7c-0.6,0-1.2,0.2-1.8,0.7
				c-0.6,0.5-1,1.1-1.2,1.9v7.3h-3.2v-12.6h2.9v2.3c0.5-0.8,1.1-1.4,1.9-1.9c0.8-0.4,1.7-0.7,2.8-0.7c1.1,0,1.9,0.3,2.4,0.8
				c0.6,0.5,0.9,1.1,1.1,1.9c0.5-0.9,1.2-1.5,1.9-2s1.7-0.7,2.7-0.7c0.8,0,1.4,0.1,1.9,0.4s0.9,0.7,1.2,1.1c0.3,0.5,0.5,1,0.6,1.6
				c0.1,0.6,0.2,1.2,0.2,1.8V239.8z"/>
			<path class="st2" d="M108.7,240.1c-1,0-1.9-0.2-2.7-0.5c-0.8-0.3-1.5-0.8-2.1-1.4s-1-1.3-1.3-2.1c-0.3-0.8-0.5-1.6-0.5-2.5
				c0-0.9,0.2-1.7,0.5-2.5c0.3-0.8,0.7-1.5,1.3-2.1c0.6-0.6,1.3-1.1,2.1-1.4c0.8-0.4,1.7-0.5,2.8-0.5c1,0,1.9,0.2,2.7,0.5
				c0.8,0.4,1.5,0.8,2.1,1.4c0.6,0.6,1,1.3,1.3,2.1c0.3,0.8,0.4,1.6,0.4,2.4c0,0.2,0,0.4,0,0.6c0,0.2,0,0.4-0.1,0.5h-9.7
				c0,0.5,0.2,0.9,0.4,1.3c0.2,0.4,0.4,0.7,0.7,1c0.3,0.3,0.6,0.5,1,0.6c0.4,0.1,0.8,0.2,1.2,0.2c0.6,0,1.2-0.2,1.8-0.5
				c0.6-0.3,1-0.7,1.2-1.2l2.8,0.8c-0.5,1-1.2,1.7-2.2,2.4C111.3,239.7,110.1,240.1,108.7,240.1z M111.9,232.5
				c-0.1-0.9-0.4-1.7-1-2.3c-0.6-0.6-1.4-0.9-2.2-0.9c-0.4,0-0.8,0.1-1.2,0.2c-0.4,0.2-0.7,0.4-1,0.6c-0.3,0.3-0.5,0.6-0.7,1
				s-0.3,0.8-0.3,1.3H111.9z"/>
			<path class="st2" d="M128.9,239.8h-3.2v-7.1c0-1-0.2-1.7-0.5-2.2c-0.4-0.5-0.8-0.7-1.5-0.7c-0.3,0-0.6,0.1-1,0.2
				s-0.7,0.3-0.9,0.5c-0.3,0.2-0.6,0.5-0.8,0.8c-0.2,0.3-0.4,0.7-0.5,1.1v7.3h-3.2v-12.6h2.9v2.3c0.5-0.8,1.1-1.4,2-1.9
				c0.9-0.4,1.9-0.7,3-0.7c0.8,0,1.4,0.1,1.9,0.4s0.9,0.7,1.2,1.1c0.3,0.5,0.5,1,0.6,1.6c0.1,0.6,0.2,1.2,0.2,1.8V239.8z"/>
			<path class="st2" d="M139.1,239.2c-0.4,0.2-1,0.4-1.6,0.6c-0.6,0.2-1.3,0.3-2,0.3c-0.4,0-0.9-0.1-1.3-0.2c-0.4-0.1-0.7-0.3-1-0.5
				s-0.5-0.6-0.7-1c-0.2-0.4-0.3-0.9-0.3-1.4v-7.2h-1.7v-2.5h1.7v-4.1h3.2v4.1h2.6v2.5h-2.6v6.1c0,0.4,0.1,0.8,0.3,0.9
				c0.2,0.2,0.5,0.3,0.9,0.3s0.7-0.1,1-0.2c0.3-0.1,0.6-0.2,0.8-0.3L139.1,239.2z"/>
		</g>
		<g id="Group_442" transform="translate(84.693 0)">
			<ellipse id="Ellipse_47" class="st3" cx="3.7" cy="88.7" rx="79.7" ry="79.7"/>
			<g id="Group_416" transform="translate(55.09 34.73)">
				<path id="Path_171" class="st4" d="M-26.1,71.5c0.1-7.2-2.8-12.9-8.5-17c-4.4-3.1-9.7-4.7-14.9-6.3c-10.7-3.3-13.9-5-13.9-10.1
					c0-5.7,7.4-7.8,13.8-7.8c4.7,0,9.3,1.2,13.3,3.6l6.6-10.2c-4.9-3-10.4-4.8-16.1-5.3V9h-12.1v10.2c-10.8,2.4-17.6,9.4-17.6,19
					c-0.2,6.4,3,12.4,8.3,15.8c4.2,2.9,9.3,4.4,14.2,5.9c10.5,3.2,14.8,5.1,14.8,11.5v0.1c0,5.4-7.2,7.3-13.3,7.3
					c-5.8,0-12.1-2.5-15.7-6.3l-8.8,8.3c4.9,4.9,11.2,8.3,18,9.5v9.9h12.1v-9.7C-33.9,88.8-26.1,81.6-26.1,71.5"/>
			</g>
		</g>
	</g>
	<g id="Group_451" transform="translate(1236.539 1209.317)">
		<g class="st1">
			<path class="st2" d="M49.2,239.8v-17h7.5c0.8,0,1.5,0.2,2.2,0.5s1.2,0.8,1.7,1.3c0.5,0.5,0.9,1.1,1.1,1.8s0.4,1.4,0.4,2.1
				c0,1.1-0.3,2.1-0.8,3c-0.6,0.9-1.3,1.6-2.2,2l3.9,6.4h-3.7l-3.5-5.7h-3.3v5.7H49.2z M52.5,231.2h4.2c0.3,0,0.6-0.1,0.9-0.2
				c0.3-0.1,0.5-0.3,0.7-0.6c0.2-0.2,0.3-0.5,0.5-0.9c0.1-0.3,0.2-0.7,0.2-1.1c0-0.4-0.1-0.8-0.2-1.1c-0.1-0.3-0.3-0.6-0.5-0.9
				c-0.2-0.2-0.5-0.4-0.7-0.6c-0.3-0.1-0.6-0.2-0.9-0.2h-4V231.2z"/>
			<path class="st2" d="M70.3,240.1c-1,0-1.9-0.2-2.7-0.5c-0.8-0.3-1.5-0.8-2.1-1.4s-1-1.3-1.3-2.1c-0.3-0.8-0.5-1.6-0.5-2.5
				c0-0.9,0.2-1.7,0.5-2.5c0.3-0.8,0.7-1.5,1.3-2.1s1.3-1.1,2.1-1.4c0.8-0.4,1.7-0.5,2.8-0.5c1,0,1.9,0.2,2.7,0.5
				c0.8,0.4,1.5,0.8,2.1,1.4s1,1.3,1.3,2.1c0.3,0.8,0.4,1.6,0.4,2.4c0,0.2,0,0.4,0,0.6c0,0.2,0,0.4-0.1,0.5h-9.7
				c0,0.5,0.2,0.9,0.4,1.3c0.2,0.4,0.4,0.7,0.7,1c0.3,0.3,0.6,0.5,1,0.6c0.4,0.1,0.8,0.2,1.2,0.2c0.6,0,1.2-0.2,1.8-0.5
				s1-0.7,1.2-1.2l2.8,0.8c-0.5,1-1.2,1.7-2.2,2.4C72.9,239.7,71.7,240.1,70.3,240.1z M73.6,232.5c-0.1-0.9-0.4-1.7-1-2.3
				c-0.6-0.6-1.4-0.9-2.2-0.9c-0.4,0-0.8,0.1-1.2,0.2c-0.4,0.2-0.7,0.4-1,0.6c-0.3,0.3-0.5,0.6-0.7,1c-0.2,0.4-0.3,0.8-0.3,1.3H73.6
				z"/>
			<path class="st2" d="M78.1,233.5c0-0.9,0.2-1.7,0.5-2.5c0.3-0.8,0.7-1.5,1.3-2.1c0.6-0.6,1.3-1.1,2.1-1.4
				c0.8-0.4,1.7-0.5,2.8-0.5c1.4,0,2.5,0.3,3.5,0.9c1,0.6,1.7,1.4,2.2,2.3l-3.1,1c-0.3-0.5-0.6-0.8-1.1-1.1s-0.9-0.4-1.5-0.4
				c-0.5,0-0.9,0.1-1.3,0.3c-0.4,0.2-0.7,0.4-1,0.8c-0.3,0.3-0.5,0.7-0.7,1.2s-0.3,1-0.3,1.5c0,0.6,0.1,1.1,0.3,1.5
				c0.2,0.5,0.4,0.9,0.7,1.2s0.6,0.6,1,0.8c0.4,0.2,0.8,0.3,1.3,0.3c0.6,0,1.1-0.1,1.6-0.4c0.5-0.3,0.8-0.6,1-1.1l3.1,1
				c-0.4,1-1.1,1.7-2.1,2.4c-1,0.6-2.2,0.9-3.6,0.9c-1,0-1.9-0.2-2.8-0.5c-0.8-0.4-1.5-0.8-2.1-1.4c-0.6-0.6-1-1.3-1.3-2.1
				C78.2,235.2,78.1,234.4,78.1,233.5z"/>
			<path class="st2" d="M98.1,240.1c-1,0-1.9-0.2-2.8-0.5c-0.8-0.4-1.5-0.8-2.1-1.4c-0.6-0.6-1-1.3-1.3-2.1
				c-0.3-0.8-0.5-1.6-0.5-2.5c0-0.9,0.2-1.7,0.5-2.5c0.3-0.8,0.7-1.5,1.3-2.1c0.6-0.6,1.3-1.1,2.1-1.4c0.8-0.4,1.7-0.5,2.8-0.5
				s1.9,0.2,2.7,0.5c0.8,0.4,1.5,0.8,2.1,1.4c0.6,0.6,1,1.3,1.3,2.1c0.3,0.8,0.5,1.6,0.5,2.5c0,0.9-0.2,1.7-0.5,2.5
				c-0.3,0.8-0.7,1.5-1.3,2.1c-0.6,0.6-1.2,1.1-2.1,1.4C100,239.9,99.1,240.1,98.1,240.1z M94.8,233.5c0,0.6,0.1,1.1,0.3,1.5
				c0.2,0.5,0.4,0.9,0.7,1.2s0.6,0.6,1,0.8c0.4,0.2,0.8,0.3,1.3,0.3s0.9-0.1,1.3-0.3c0.4-0.2,0.7-0.4,1-0.8s0.5-0.7,0.7-1.2
				c0.2-0.5,0.3-1,0.3-1.5c0-0.5-0.1-1-0.3-1.5c-0.2-0.5-0.4-0.9-0.7-1.2s-0.6-0.6-1-0.8c-0.4-0.2-0.8-0.3-1.3-0.3s-0.9,0.1-1.3,0.3
				c-0.4,0.2-0.7,0.5-1,0.8s-0.5,0.7-0.7,1.2C94.9,232.5,94.8,233,94.8,233.5z"/>
			<path class="st2" d="M114.3,230c-1,0-1.8,0.2-2.6,0.6s-1.3,0.9-1.7,1.6v7.6h-3.2v-12.6h3v2.7c0.2-0.4,0.5-0.8,0.8-1.2
				c0.3-0.3,0.6-0.6,1-0.9c0.4-0.3,0.7-0.5,1.1-0.6c0.4-0.1,0.7-0.2,1-0.2c0.2,0,0.3,0,0.4,0s0.2,0,0.3,0V230z"/>
			<path class="st2" d="M120.7,240.1c-0.9,0-1.7-0.2-2.4-0.5c-0.7-0.3-1.4-0.8-1.9-1.4s-0.9-1.3-1.2-2.1c-0.3-0.8-0.4-1.6-0.4-2.6
				s0.1-1.8,0.4-2.5c0.3-0.8,0.7-1.5,1.2-2.1s1.1-1.1,1.8-1.4s1.4-0.5,2.3-0.5c0.9,0,1.8,0.2,2.5,0.7c0.7,0.4,1.3,1,1.7,1.8v-7.2
				h3.2v13.8c0,0.3,0.1,0.6,0.2,0.7c0.1,0.1,0.3,0.2,0.6,0.2v2.7c-0.6,0.1-1,0.2-1.4,0.2c-0.6,0-1-0.1-1.4-0.4
				c-0.4-0.3-0.6-0.7-0.6-1.1l-0.1-0.8c-0.5,0.8-1.1,1.4-1.9,1.8C122.4,239.8,121.5,240.1,120.7,240.1z M121.5,237.3
				c0.3,0,0.6-0.1,0.9-0.2s0.6-0.3,0.9-0.4c0.3-0.2,0.5-0.4,0.7-0.7c0.2-0.3,0.4-0.5,0.5-0.8v-3c-0.1-0.4-0.3-0.7-0.5-1
				c-0.2-0.3-0.5-0.6-0.8-0.8c-0.3-0.2-0.6-0.4-0.9-0.5c-0.3-0.1-0.7-0.2-1-0.2c-0.5,0-0.9,0.1-1.3,0.3c-0.4,0.2-0.8,0.5-1,0.9
				c-0.3,0.4-0.5,0.8-0.7,1.2c-0.2,0.5-0.2,0.9-0.2,1.4c0,0.5,0.1,1,0.3,1.5c0.2,0.4,0.4,0.8,0.7,1.2c0.3,0.3,0.7,0.6,1.1,0.8
				C120.5,237.2,121,237.3,121.5,237.3z"/>
		</g>
		<g id="Group_443" transform="translate(84.692 0)">
			<ellipse id="Ellipse_65" class="st3" cx="3.7" cy="88.7" rx="79.7" ry="79.7"/>
			<g id="Group_432" transform="translate(33.533 34.73)">
				<g id="Group_417" transform="translate(0.278 83.031)">
					<path id="Path_172" class="st4" d="M11.4,9h-83.3c-2.3,0-4.1,1.8-4.1,4.1c0,2.3,1.8,4.1,4.1,4.1h83.3c2.3,0,4.1-1.8,4.1-4.1
						c0.1-2.2-1.7-4-3.9-4.1C11.6,9,11.5,9,11.4,9"/>
				</g>
				<g id="Group_418" transform="translate(5.547 30.539)">
					<path id="Path_173" class="st4" d="M-71.9,50.8c-2.3,0-4.1,1.8-4.1,4.1c0.1,2.2,1.9,4,4.1,4.1h73c2.3,0,4.1-1.8,4.1-4.1
						c-0.1-2.2-1.9-4-4.1-4.1h-1V13.3h1c1.2,0,2.1-1,2.1-2.1C3.2,10,2.3,9,1.1,9h-73c-1.2,0-2.1,1-2.1,2.1c0,1.2,1,2.1,2.1,2.1h1
						v37.5H-71.9z M-8.3,50.6h-12.5V13.1h12.5V50.6z M-29.2,50.6h-12.5V13.1h12.5V50.6z M-29.2,13.1h-33.4H-50v37.5h-12.5
						L-29.2,13.1z"/>
				</g>
				<g id="Group_419" transform="translate(0 0)">
					<path id="Path_174" class="st4" d="M-71.6,35.8h83.3c2.3,0,4.1-1.8,4.1-4.1c0-1.7-1.1-3.3-2.7-3.9L-28.3,9.3
						c-1.1-0.4-2.4-0.4-3.5,0L-73.6,28c-1.8,0.8-2.7,2.8-2.3,4.7C-75.2,34.5-73.5,35.7-71.6,35.8"/>
				</g>
			</g>
		</g>
	</g>
	<g id="Group_464" transform="translate(-750.814 2574.455) rotate(-90)">
		
			<rect id="Rectangle_238" x="1646.6" y="1380.5" transform="matrix(-0.7071 -0.7071 0.7071 -0.7071 1827.1664 3549.2876)" class="st5" width="4.1" height="31.4"/>
		
			<rect id="Rectangle_238-2" x="1613.5" y="1394.2" transform="matrix(-0.7071 -0.7071 0.7071 -0.7071 1794.0878 3535.5342)" class="st5" width="31.5" height="4.1"/>
	</g>
	<g id="Group_465" transform="translate(-477.814 2574.455) rotate(-90)">
		
			<rect id="Rectangle_238-3" x="1646.6" y="1380.5" transform="matrix(-0.7071 -0.7071 0.7071 -0.7071 1827.1664 3549.2876)" class="st5" width="4.1" height="31.4"/>
		
			<rect id="Rectangle_238-4" x="1613.5" y="1394.2" transform="matrix(-0.7071 -0.7071 0.7071 -0.7071 1794.0878 3535.5342)" class="st5" width="31.5" height="4.1"/>
	</g>
	<g id="Group_466" transform="translate(-204.814 2574.455) rotate(-90)">
		
			<rect id="Rectangle_238-5" x="1646.6" y="1380.5" transform="matrix(-0.7071 -0.7071 0.7071 -0.7071 1827.1664 3549.2876)" class="st5" width="4.1" height="31.4"/>
		
			<rect id="Rectangle_238-6" x="1613.5" y="1394.2" transform="matrix(-0.7071 -0.7071 0.7071 -0.7071 1794.0878 3535.5342)" class="st5" width="31.5" height="4.1"/>
	</g>
	<g id="Group_467" transform="translate(-458.482 2939.75) rotate(-90)">
		
			<rect id="Rectangle_238-7" x="1646.6" y="1380.5" transform="matrix(-0.7071 -0.7071 0.7071 -0.7071 1827.1664 3549.2876)" class="st5" width="4.1" height="31.4"/>
		
			<rect id="Rectangle_238-8" x="1613.5" y="1394.2" transform="matrix(-0.7071 -0.7071 0.7071 -0.7071 1794.0878 3535.5342)" class="st5" width="31.5" height="4.1"/>
	</g>
	<g id="Group_469" transform="translate(-730.482 2939.75) rotate(-90)">
		
			<rect id="Rectangle_238-9" x="1646.6" y="1380.5" transform="matrix(-0.7071 -0.7071 0.7071 -0.7071 1827.1664 3549.2876)" class="st5" width="4.1" height="31.4"/>
		
			<rect id="Rectangle_238-10" x="1613.5" y="1394.2" transform="matrix(-0.7071 -0.7071 0.7071 -0.7071 1794.0878 3535.5342)" class="st5" width="31.5" height="4.1"/>
	</g>
	<g id="Group_468" transform="translate(-205.814 2939.75) rotate(-90)">
		
			<rect id="Rectangle_238-11" x="1646.6" y="1380.5" transform="matrix(-0.7071 -0.7071 0.7071 -0.7071 1827.1664 3549.2876)" class="st5" width="4.1" height="31.4"/>
		
			<rect id="Rectangle_238-12" x="1613.5" y="1394.2" transform="matrix(-0.7071 -0.7071 0.7071 -0.7071 1794.0878 3535.5342)" class="st5" width="31.5" height="4.1"/>
	</g>
	<line id="Line_27" class="st0" x1="525.9" y1="1175.5" x2="524.9" y2="1295.5"/>
</g>
</svg>
